PathFileType	4	(X/Y/Z)	Patient4_TMGait_0pt5_02_left_17.trc.trc
DataRate	CameraRate	NumFrames	NumMarkers	Units	OrigDataRate	OrigDataStartFrame	OrigNumFrames
81.395348837209	81.395348837209	5	33	mm	81.395348837209	18	       141
Frame#	Time	Sacral			L.Shoulder			Chest			R.Shoulder			Neck			R.ASIS			L.ASIS			R.Thigh.Superior			R.Thigh.Lateral			R.Thigh.Inferior			R.Patella			L.Thigh.Superior			L.Thigh.Lateral			L.Thigh.Inferior			L.Patella			L.Shank.Superior			L.Shank.Lateral			L.Shank.Inferior			R.Shank.Superior			R.Shank.Lateral			R.Shank.Inferior			R.Heel			R.Midfoot.Superior			R.Midfoot.Lateral			R.Toe			L.Heel			L.Midfoot.Lateral			L.Midfoot.Superior			L.Toe			L.Elbow			L.Wrist			R.Elbow			R.Wrist			
		X1	Y1	Z1	X2	Y2	Z2	X3	Y3	Z3	X4	Y4	Z4	X5	Y5	Z5	X6	Y6	Z6	X7	Y7	Z7	X8	Y8	Z8	X9	Y9	Z9	X10	Y10	Z10	X11	Y11	Z11	X12	Y12	Z12	X13	Y13	Z13	X14	Y14	Z14	X15	Y15	Z15	X16	Y16	Z16	X17	Y17	Z17	X18	Y18	Z18	X19	Y19	Z19	X20	Y20	Z20	X21	Y21	Z21	X22	Y22	Z22	X23	Y23	Z23	X24	Y24	Z24	X25	Y25	Z25	X26	Y26	Z26	X27	Y27	Z27	X28	Y28	Z28	X29	Y29	Z29	X30	Y30	Z30	X31	Y31	Z31	X32	Y32	Z32	X33	Y33	Z33	

18	21.738857142857	596.434318944811	1024.075466251849	528.938346543104	811.630028291036	1425.886510529405	335.614542222520	915.225499358764	1345.708164142739	491.504889017027	851.893161828539	1433.788180550135	668.322914166987	823.860733150095	1488.516037348192	485.741748858661	816.835250547637	934.709157191933	637.966377345771	798.746561391815	954.288854899118	364.046697238105	821.717945616508	725.464347930077	612.386452696920	722.613686637927	632.661571343709	671.914866863766	787.457104237855	567.330241042596	592.041786909471	775.629458694870	483.289563417273	596.439778035534	862.487267982744	772.129178394260	401.510955132287	819.532729835391	649.549202880311	318.377773694030	912.681473504855	586.227784357488	391.228144097814	939.805514606820	520.574426807226	388.200514270244	921.334929265043	448.599936371253	375.683213149074	857.423713887499	321.326328500936	315.587745974596	933.971727661170	219.038702354026	379.118341198999	740.075169175424	399.309988222694	602.229604864719	660.521974318611	301.897431388674	661.989118689049	694.538696065115	204.145869821540	598.431266363026	550.155660467598	44.533109657733	561.731764782999	719.484981467548	96.282696566658	606.287695274602	629.212844211216	36.476299449098	640.848837440134	837.669898609417	41.213599992086	641.287959934104	842.311457174908	37.523572033352	405.738732143774	923.158319795408	46.258926227977	332.944714176700	990.863578815959	123.890034362225	361.951865077149	1126.694193793380	97.852347002416	346.867457745478	678.864070171498	1089.860825329477	246.068099007808	655.054221187455	831.508203541180	238.396970474493	921.804126196253	1107.665605302144	798.641757407189	1171.219850847258	1114.330572203437	760.710825896377	
19	21.751142857143	597.368288603222	1023.277506533908	527.548313109201	811.790034721966	1425.216535923892	333.763507044369	915.811587176717	1344.959730852751	489.335337281924	852.922945968906	1433.127107336929	666.246612268595	824.296625372375	1487.814206394324	483.913407807639	817.776475680041	933.947311822294	636.105710397240	799.172578231413	953.428701497418	362.057526644374	821.158124135318	724.459750228202	610.574311126874	721.662341759220	632.126315066656	670.657028505217	785.835179405976	566.377393801241	590.726835102671	773.217040966907	482.245711924551	595.282728930473	861.969308090746	770.305922744784	399.478386693989	817.380218026083	647.716717569993	316.956652752925	910.269471283385	584.024907310245	389.763292154247	937.177639051616	519.477703767542	387.348227991256	920.466330604799	447.978591279369	374.707525420582	859.476344441215	318.689449675380	315.790294503953	939.263826486219	218.761283062562	379.362339150571	737.040070580887	398.439508841261	601.298573395775	656.662931964134	301.816770186939	661.314725641829	689.610602238138	203.659285807109	597.931845742179	544.012727640192	44.559384567445	561.762133597797	713.353663297491	96.271883142978	606.176878819034	623.041804663694	36.469732120117	640.810176284295	831.462972019896	41.125589749067	641.305836619086	852.130929499348	35.834810480919	407.286649285540	932.797384498294	45.259989243760	334.346189303280	999.247431743579	124.061948793816	362.854349439172	1135.580108496227	99.992191759473	347.902105556902	679.201665680490	1089.205991617144	244.164687052135	655.607150928887	830.825914359830	236.133031785253	926.897974480741	1107.818805482506	795.226329385510	1175.772926516396	1120.014602206484	756.820779546380	
20	21.763428571429	598.500094404130	1022.244571513104	525.863433430418	811.956410725109	1424.424199462320	331.696990557454	916.331178531991	1344.243415692102	487.071683473800	853.620428014580	1432.452976730677	663.990405748297	824.542226427218	1487.034095273514	481.859537243365	818.913714596573	933.131063078465	634.215118116434	800.002507284806	952.401239277080	360.028747162480	820.924821286104	723.393845645375	608.698594005023	721.037353469964	631.476839448019	669.309203618079	784.597246275027	565.353582184115	589.353079724823	771.121109002012	481.062782777593	594.030620175472	862.101150017882	768.480754036399	397.378329629381	815.704270277444	645.756278828959	315.726601833341	908.602869145494	581.896890069028	388.238407955439	935.018944142047	518.000408401234	386.381911099173	919.547895629196	446.869090895891	373.641849186533	860.238347939843	316.202233077215	316.274134876215	942.631947214048	218.083583442757	379.548616595775	734.293783284544	397.432015954214	600.302392577253	652.997091646784	301.660618774248	660.571989199770	684.775330329263	203.087385504563	597.387919162009	537.864739212909	44.558007439607	561.773280365140	707.220631161095	96.261059148067	606.048807775037	616.876730872649	36.448577788909	640.764725355784	825.266166077839	41.046542392917	641.334078355711	858.605138900659	34.920481325213	409.229153925989	938.711662176270	44.347156829027	335.726266685367	1004.843659460236	123.389424422434	363.503814139354	1141.179546051271	99.820159556943	347.903763961637	679.984455390060	1088.266021402840	241.917107540036	657.136855203775	829.809048509999	233.485712630478	931.336136473411	1107.870767540067	791.659691725761	1179.672979048187	1124.749912983184	752.943688213944	
21	21.775714285714	599.810122013352	1020.985912244645	523.891135301347	812.119544495613	1423.503228054127	329.405857875662	916.782568767638	1343.560910110752	484.705711158221	853.986307345215	1431.766675579965	661.551957037059	824.594769887538	1486.176445909964	479.570079601041	820.246196048783	932.257673720820	632.305718996367	801.243299753676	951.216307336560	357.976005908530	821.033907027137	722.256661127101	606.785524365971	720.736937564106	630.706719043500	667.874816585753	783.752516401975	564.248397273038	587.931790403464	769.354054676661	479.722623751261	592.686742973953	862.900856113562	766.694227158291	395.236373973120	814.573611021110	643.716324850381	314.676784946817	907.751010709417	579.906232185464	386.646956079318	933.395008448493	516.202337290344	385.313775266872	918.708203463645	445.301727806160	372.523141742198	859.962727423361	313.824756878310	316.883274748941	944.261569146469	216.932838276258	379.653934377603	731.825543885433	396.279559660888	599.234815050538	649.521332064320	301.427953357041	659.762173579424	680.027805022599	202.433649943220	596.801693470267	531.707607955145	44.538559367343	561.772685170869	701.087990625970	96.250524369262	605.902306687218	610.717711242689	36.419579059499	640.715856730182	819.084329819869	40.976533319142	641.375805784064	861.874692077486	34.579942979983	411.326205286229	941.170305642062	43.379915817878	336.962326339761	1007.861868935552	121.803642904304	363.914835798899	1143.798114634250	97.337215604443	347.087844347009	681.177969056325	1087.039926844551	239.342431153896	659.611311018788	828.463448384132	230.459939626394	935.059625691381	1107.796514229312	787.992440709004	1182.905445663465	1128.536443981425	749.094871621037	
22	21.788000000000	601.274215308588	1019.525124543078	521.650843096518	812.271163415189	1422.455546865653	326.885619034659	917.166641250620	1342.919402737492	482.231542147489	854.034274757435	1431.080979645816	658.932738372966	824.462294877057	1485.253091168612	477.036927447097	821.763070530727	931.333270975464	630.384855694103	802.883247365630	949.902503595347	355.915485739485	821.496732408028	721.049148409629	604.860928058399	720.758264749335	629.818941849943	666.355287056495	783.309429312491	563.058798755624	586.471457693512	767.941836685265	478.211967001794	591.257590520062	864.355725699511	764.984078065024	393.076564015483	814.047534891275	641.666109614705	313.764560634065	907.745892134606	578.103178839423	384.977194723422	932.345175113124	514.166803563012	384.159488847997	918.074207598923	443.352375151909	371.382369097700	858.972623740845	311.553104072398	317.448683115781	944.430510893998	215.316979909275	379.663298261442	729.629260677136	394.984619797123	598.090448306302	646.236876548670	301.131788705439	658.888286864777	675.369158706397	201.713955954057	596.178269221406	525.539337007426	44.530159585497	561.772528087626	694.964461933240	96.242949464279	605.738670303341	604.566189761578	36.399733066739	640.667791223354	812.923072903398	40.911331342119	641.432693759145	862.264135618096	34.638390005217	413.351201119249	940.632594159739	42.289459603427	337.962216957091	1008.624530186324	119.367540656941	364.124447834813	1143.862136590052	92.792405669681	345.732982815812	682.762519579990	1085.530954862874	236.463538078858	662.999518689847	826.802880840003	227.070382454769	938.013098533526	1107.577380174525	784.278151114376	1185.448579775879	1131.371978802290	745.288707510634	
